<svg xmlns="http://www.w3.org/2000/svg" xmlns:xlink="http://www.w3.org/1999/xlink" width="500" zoomAndPan="magnify" viewBox="0 0 375 374.999991" height="500" preserveAspectRatio="xMidYMid meet" version="1.0"><path fill="#ff66c4" d="M 306.820312 280.234375 C 306.851562 283.175781 306.09375 287.019531 305.304688 290.1875 C 299.792969 312.464844 275.320312 337.464844 240.871094 335.191406 C 209.648438 333.132812 184.21875 318.136719 184.21875 297.101562 C 184.21875 276.070312 209.585938 259.015625 240.871094 259.015625 C 272.152344 259.015625 306.625 259.203125 306.820312 280.234375 Z M 306.820312 280.234375 " fill-opacity="1" fill-rule="nonzero"/><path fill="#5e17eb" d="M 240.871094 262.546875 C 224.066406 262.546875 185.714844 267.199219 176.914062 267.199219 C 161.363281 267.199219 148.753906 276.964844 148.753906 289.011719 C 148.753906 294.808594 151.722656 300.042969 156.476562 303.949219 C 156.476562 303.949219 166.917969 314.429688 185.726562 309.402344 C 193.957031 307.199219 207.34375 290.851562 230.917969 288.253906 C 242.65625 286.957031 264.648438 296.042969 303.300781 296.261719 C 304.964844 292.6875 305.304688 290.207031 305.304688 290.207031 C 305.304688 269.152344 272.152344 262.546875 240.871094 262.546875 Z M 240.871094 262.546875 " fill-opacity="1" fill-rule="nonzero"/><path fill="#8c52ff" d="M 305.304688 290.1875 C 305.304688 290.1875 327.972656 285.585938 342.070312 267.035156 C 358.5 245.398438 356.339844 222.246094 356.339844 222.246094 C 372.988281 191.085938 351.152344 161.871094 351.152344 161.871094 C 348.980469 128.976562 328.660156 115.347656 328.660156 115.347656 C 315.46875 83.96875 286.28125 75.535156 286.28125 75.535156 C 263.363281 48.707031 222.707031 49.570312 222.707031 49.570312 C 222.707031 49.570312 184.613281 35.601562 132.324219 51.304688 C 123.675781 53.902344 94.699219 59.957031 73.503906 72.941406 C 6.703125 113.863281 1.648438 177.679688 2.582031 188.054688 C 7.761719 246.042969 48.417969 256.429688 74.363281 262.484375 C 80.417969 278.925781 102.691406 309.222656 142.691406 297.976562 C 191.996094 289.324219 212.753906 274.605469 224.867188 274.605469 C 236.976562 274.605469 270.710938 287.589844 305.304688 290.1875 Z M 305.304688 290.1875 " fill-opacity="1" fill-rule="nonzero"/><path fill="#ff66c4" d="M 180.617188 196.945312 C 204.78125 183.910156 217.878906 185.125 229.441406 186.175781 C 233.117188 186.507812 236.59375 186.765625 240.113281 186.746094 C 260.707031 186.277344 277.386719 177.59375 284.765625 169.191406 C 286.652344 167.03125 286.4375 163.761719 284.289062 161.859375 C 282.148438 159.96875 278.878906 160.167969 276.960938 162.328125 C 271.273438 168.808594 257.25 175.964844 239.875 176.359375 C 236.761719 176.453125 233.636719 176.140625 230.398438 175.839844 C 217.996094 174.6875 202.589844 173.273438 175.6875 187.804688 C 168.785156 191.535156 159.320312 192.914062 149.066406 193.953125 C 126.261719 161.019531 139.984375 132.332031 143.90625 125.496094 C 144.289062 125.515625 144.664062 125.640625 145.058594 125.640625 C 149.210938 125.640625 153.382812 124.625 157.160156 122.484375 C 159.652344 121.070312 160.535156 117.902344 159.121094 115.410156 C 157.710938 112.917969 154.546875 112.035156 152.054688 113.449219 C 145.410156 117.207031 136.671875 115.035156 132.542969 108.597656 C 130.996094 106.175781 127.789062 105.46875 125.378906 107.027344 C 122.972656 108.578125 122.265625 111.785156 123.8125 114.195312 C 126.273438 118.046875 129.738281 120.945312 133.652344 122.890625 C 128.246094 133.878906 117.980469 162.773438 137.511719 195.085938 C 123.769531 196.4375 110.007812 198.378906 99.234375 205.328125 C 92.28125 209.8125 85.171875 216.378906 79.742188 223.929688 C 73.214844 222.808594 49.308594 216.917969 45.136719 190.371094 C 47.730469 188.355469 49.828125 185.695312 51.125 182.414062 C 52.183594 179.746094 50.875 176.734375 48.210938 175.671875 C 45.542969 174.613281 42.53125 175.921875 41.472656 178.59375 C 40.550781 180.929688 38.878906 182.632812 36.761719 183.378906 C 34.664062 184.128906 32.289062 183.878906 30.085938 182.652344 C 27.566406 181.25 24.417969 182.175781 23.027344 184.667969 C 21.636719 187.171875 22.539062 190.339844 25.042969 191.730469 C 27.988281 193.371094 31.144531 194.203125 34.28125 194.203125 C 34.664062 194.203125 35.027344 194.027344 35.410156 194.007812 C 40.351562 219.070312 60.144531 230.078125 74.148438 233.414062 C 72.320312 237.441406 71.085938 241.597656 70.710938 245.792969 C 70.460938 248.640625 72.570312 251.171875 75.421875 251.421875 L 75.890625 251.445312 C 78.546875 251.445312 80.820312 249.417969 81.058594 246.707031 C 82.179688 234.109375 94.191406 220.949219 104.859375 214.042969 C 114.867188 207.589844 129.511719 206.230469 143.6875 204.910156 C 157.441406 203.65625 170.4375 202.449219 180.617188 196.945312 Z M 314.160156 181.324219 C 312.800781 183.835938 313.734375 186.996094 316.234375 188.355469 C 317.023438 188.792969 317.886719 189 318.726562 189 C 320.554688 189 322.328125 188.035156 323.273438 186.308594 C 323.46875 185.957031 342.390625 150.484375 306.964844 126.648438 C 304.601562 125.070312 301.371094 125.683594 299.761719 128.0625 C 298.164062 130.441406 298.796875 133.671875 301.175781 135.269531 C 328.617188 153.738281 314.761719 180.203125 314.160156 181.324219 Z M 99.027344 97.460938 C 100.644531 97.460938 102.234375 96.714844 103.242188 95.300781 C 118.289062 74.351562 139.132812 81.519531 140.015625 81.851562 C 142.703125 82.828125 145.660156 81.457031 146.65625 78.777344 C 147.652344 76.085938 146.285156 73.105469 143.59375 72.109375 C 133.632812 68.410156 110.621094 67.246094 94.8125 89.246094 C 93.140625 91.5625 93.671875 94.8125 95.996094 96.484375 C 96.917969 97.152344 97.976562 97.460938 99.027344 97.460938 Z M 234.707031 77.851562 C 257.800781 75.972656 268.304688 92.726562 268.78125 93.515625 C 269.757812 95.15625 271.480469 96.070312 273.253906 96.070312 C 274.148438 96.070312 275.058594 95.84375 275.878906 95.355469 C 278.351562 93.898438 279.179688 90.722656 277.738281 88.25 C 277.175781 87.304688 263.828125 65.210938 233.894531 67.496094 C 231.042969 67.714844 228.914062 70.21875 229.132812 73.085938 C 229.359375 75.941406 231.945312 78.113281 234.707031 77.851562 Z M 329.675781 229.609375 C 327.121094 229.464844 324.308594 231.492188 324.082031 234.359375 C 324.0625 234.542969 322.410156 252.210938 304.257812 258.183594 C 301.539062 259.078125 300.054688 262.007812 300.957031 264.738281 C 301.664062 266.917969 303.707031 268.3125 305.886719 268.3125 C 306.425781 268.3125 306.964844 268.230469 307.507812 268.050781 C 332.125 259.972656 334.347656 236.226562 334.429688 235.21875 C 334.648438 232.351562 332.53125 229.839844 329.675781 229.609375 Z M 329.675781 229.609375 " fill-opacity="1" fill-rule="nonzero"/><path fill="#ff66c4" d="M 72.777344 179.144531 C 72.03125 181.914062 73.667969 184.761719 76.441406 185.507812 C 76.886719 185.632812 77.34375 185.6875 77.789062 185.6875 C 80.085938 185.6875 82.171875 184.160156 82.792969 181.84375 C 84.765625 174.457031 92.414062 169.722656 99.941406 171.3125 C 102.753906 171.882812 105.492188 170.105469 106.085938 167.292969 C 106.675781 164.488281 104.878906 161.734375 102.066406 161.144531 C 97.644531 160.207031 93.203125 160.644531 89.113281 162.035156 C 77.011719 141.324219 79.367188 120.90625 79.398438 120.6875 C 79.773438 117.851562 77.78125 115.246094 74.945312 114.851562 C 72.125 114.507812 69.507812 116.449219 69.113281 119.285156 C 68.976562 120.292969 66.207031 143.339844 80.144531 167.207031 C 76.679688 170.335938 74.042969 174.417969 72.777344 179.144531 Z M 188.808594 153.488281 C 193.03125 149.570312 199.808594 149.644531 203.910156 153.644531 C 204.925781 154.621094 206.222656 155.109375 207.53125 155.109375 C 208.890625 155.109375 210.242188 154.578125 211.246094 153.53125 C 213.242188 151.472656 213.199219 148.179688 211.144531 146.1875 C 208.757812 143.871094 205.902344 142.320312 202.871094 141.355469 C 205.945312 130.804688 204.730469 126.121094 201.875 117.34375 C 201.378906 115.816406 200.828125 114.113281 200.246094 112.171875 L 199.933594 111.132812 C 196.15625 98.585938 193.65625 90.304688 200.835938 78.621094 C 202.34375 76.179688 201.574219 72.980469 199.136719 71.476562 C 196.738281 69.980469 193.507812 70.71875 191.996094 73.179688 C 182.363281 88.839844 185.902344 100.566406 190 114.144531 L 190.3125 115.183594 C 190.925781 117.195312 191.484375 118.960938 192.003906 120.550781 C 194.566406 128.457031 195.347656 131.105469 192.210938 140.660156 C 188.382812 141.378906 184.71875 143.113281 181.730469 145.894531 C 179.632812 147.847656 179.519531 151.140625 181.46875 153.238281 C 183.429688 155.335938 186.722656 155.441406 188.808594 153.488281 Z M 254.871094 122.484375 C 257.894531 122.484375 260.945312 121.851562 263.789062 120.5 C 266.382812 119.273438 267.492188 116.179688 266.269531 113.582031 C 265.054688 110.984375 261.921875 109.90625 259.367188 111.101562 C 254.15625 113.550781 247.730469 111.421875 245 106.351562 C 243.640625 103.820312 240.476562 102.894531 237.976562 104.222656 C 235.453125 105.574219 234.496094 108.730469 235.855469 111.257812 C 237.726562 114.746094 240.507812 117.5 243.746094 119.410156 C 238.171875 132.964844 241.335938 147.359375 243.921875 154.992188 C 244.648438 157.164062 246.671875 158.523438 248.84375 158.523438 C 249.390625 158.523438 249.941406 158.441406 250.503906 158.253906 C 253.222656 157.339844 254.675781 154.390625 253.75 151.679688 C 252.007812 146.507812 248.625 133.441406 253.730469 122.328125 C 254.125 122.347656 254.488281 122.484375 254.871094 122.484375 Z M 304.660156 220.417969 C 304.464844 217.5625 301.996094 215.308594 299.152344 215.570312 C 288.625 216.316406 279.660156 208.328125 278.941406 197.878906 C 278.734375 195.023438 276.191406 192.894531 273.410156 193.050781 C 270.554688 193.246094 268.398438 195.730469 268.582031 198.585938 C 269.007812 204.714844 271.34375 210.238281 274.894531 214.738281 C 266.550781 224.5625 255.621094 227.355469 249.527344 228.074219 C 244.140625 228.71875 239.429688 228.167969 233.980469 227.523438 C 228.984375 226.953125 223.339844 226.296875 216.355469 226.503906 L 216.300781 226.515625 C 216.09375 223.546875 215.390625 219.214844 213.136719 215.609375 C 211.621094 213.191406 208.414062 212.453125 205.984375 213.96875 C 203.566406 215.484375 202.820312 218.695312 204.34375 221.125 C 205.738281 223.359375 205.996094 226.921875 205.996094 228.65625 C 200.765625 230.535156 196.238281 233.296875 192.148438 235.96875 C 184.84375 240.726562 179.082031 244.484375 170.414062 242.53125 C 162.570312 240.734375 154.710938 240.371094 148.046875 241.304688 C 147.011719 238.699219 145.371094 235.582031 142.835938 233.183594 C 140.75 231.210938 137.472656 231.292969 135.5 233.390625 C 133.539062 235.46875 133.621094 238.761719 135.707031 240.734375 C 136.601562 241.578125 137.304688 242.800781 137.875 244.027344 C 126.429688 248.742188 120.6875 256.625 120.417969 257.011719 C 118.757812 259.335938 119.308594 262.546875 121.613281 264.21875 C 122.523438 264.875 123.582031 265.195312 124.644531 265.195312 C 126.25 265.195312 127.839844 264.457031 128.855469 263.066406 C 128.910156 262.984375 134.605469 255.347656 145.847656 252.265625 C 151.660156 250.664062 159.996094 250.800781 168.121094 252.648438 C 170.394531 253.167969 172.5 253.34375 174.546875 253.375 C 175.511719 255.640625 175.886719 258.332031 175.9375 259.328125 C 176.101562 262.089844 178.386719 264.230469 181.117188 264.230469 L 181.398438 264.21875 C 184.25 264.0625 186.441406 261.644531 186.304688 258.789062 C 186.273438 258.269531 186.066406 255.195312 184.957031 251.660156 C 189.742188 249.925781 193.902344 247.214844 197.816406 244.671875 C 203.753906 240.796875 209.371094 237.132812 216.707031 236.890625 C 222.851562 236.675781 227.917969 237.265625 232.804688 237.835938 C 237.726562 238.410156 242.5625 238.78125 247.898438 238.472656 C 248.84375 241.097656 248.769531 244.609375 248.625 245.78125 C 248.28125 248.617188 250.285156 251.214844 253.128906 251.589844 C 253.347656 251.621094 253.566406 251.628906 253.78125 251.628906 C 256.347656 251.628906 258.578125 249.730469 258.921875 247.113281 C 259.003906 246.46875 259.53125 241.792969 258.308594 236.921875 C 265.761719 234.917969 274.996094 230.566406 282.648438 221.644531 C 287.121094 224.386719 292.34375 225.996094 297.894531 225.996094 C 298.539062 225.996094 299.191406 225.976562 299.835938 225.933594 C 302.691406 225.746094 304.847656 223.285156 304.664062 220.417969 Z M 304.660156 220.417969 " fill-opacity="1" fill-rule="nonzero"/></svg>